<?xml version="1.0" encoding="UTF-8"?>
<svg version="1.1" xmlns="http://www.w3.org/2000/svg" width="577" height="368">
<path d="M0 0 C190.41 0 380.82 0 577 0 C577 121.44 577 242.88 577 368 C386.59 368 196.18 368 0 368 C0 246.56 0 125.12 0 0 Z " fill="#FBFBF9" transform="translate(0,0)"/>
<path d="M0 0 C0.75634936 -0.00453111 1.51269871 -0.00906223 2.29196775 -0.01373065 C4.8103802 -0.02632668 7.32857505 -0.02475738 9.84701538 -0.02310181 C11.65944698 -0.0290902 13.47187603 -0.03589646 15.28430176 -0.04345703 C20.19784025 -0.06109613 25.11130903 -0.06581163 30.02487612 -0.0670886 C33.09932837 -0.06851236 36.17376303 -0.07278629 39.24821091 -0.07808304 C49.98753734 -0.09657895 60.72681418 -0.10475452 71.46615601 -0.10317993 C81.45393248 -0.10197982 91.44149241 -0.12305771 101.42921412 -0.15466726 C110.02142968 -0.18088458 118.61357477 -0.19154489 127.20582998 -0.19026911 C132.32977819 -0.18976093 137.45353403 -0.19536402 142.57744217 -0.21662521 C147.40221587 -0.23609876 152.22661556 -0.23607013 157.05140305 -0.22159195 C158.81331687 -0.21951376 160.57525466 -0.22414506 162.33712769 -0.23631287 C177.70298916 -0.33548189 190.28781828 1.55286001 202.18441772 12.26742554 C209.31882398 19.64505019 215.29141754 29.98558313 215.32485962 40.42027283 C215.33056976 41.48695694 215.33627991 42.55364105 215.34216309 43.65264893 C215.34328094 44.82304718 215.3443988 45.99344543 215.34555054 47.1993103 C215.35051544 48.43214249 215.35548035 49.66497467 215.3605957 50.93516541 C215.37270831 54.31986461 215.38016432 57.70450199 215.38460636 61.08921552 C215.38753991 63.20680268 215.39164541 65.32438447 215.39611053 67.44196892 C215.40978817 74.07559959 215.41945174 80.70921792 215.42331243 87.34286171 C215.42778451 94.98418818 215.44529153 102.625335 215.47431302 110.26660687 C215.49599352 116.18185269 215.5060202 122.09704823 215.50735354 128.01233333 C215.50839766 131.54054006 215.51422003 135.06857797 215.53217316 138.59674263 C215.55185262 142.54114574 215.54733957 146.48532822 215.54086304 150.42977905 C215.55007782 151.58600769 215.5592926 152.74223633 215.56878662 153.9335022 C215.50794435 165.80253149 212.60306205 174.03707017 205.18441772 183.26742554 C204.46705444 184.20908569 204.46705444 184.20908569 203.73519897 185.16976929 C199.98942531 189.50542857 195.40191908 191.99801012 190.37191772 194.57992554 C189.7203772 194.91782104 189.06883667 195.25571655 188.39755249 195.60385132 C177.70173689 200.80622438 166.52854386 200.56599795 154.89974976 200.55795288 C153.16406976 200.56394615 151.42839241 200.57075352 149.69271851 200.57830811 C145.00255746 200.59589146 140.31246951 200.60066016 135.62227869 200.60193968 C132.68634828 200.60336589 129.75043619 200.60764432 126.81451035 200.61293411 C116.55612772 200.6314072 106.2977969 200.63960791 96.03939819 200.63803101 C86.50198868 200.63682951 76.96480543 200.65794042 67.42745316 200.68951833 C59.21650547 200.71572844 51.0056315 200.72639636 42.79464233 200.72512019 C37.90048045 200.72461206 33.00651997 200.73021274 28.11240005 200.75147629 C23.50755186 200.77093936 18.90309562 200.77092836 14.29823303 200.75644302 C12.61652423 200.75436399 10.93479035 200.75900134 9.25312424 200.77116394 C-6.17077522 200.87541889 -19.47418025 197.98713016 -31.10464478 187.13070679 C-41.69499079 175.76690853 -44.11307838 164.98896606 -44.12197876 149.79379272 C-44.13030228 148.57465683 -44.13862579 147.35552094 -44.14720154 146.09944153 C-44.16706969 142.77888894 -44.17792383 139.45858612 -44.18302798 136.13799572 C-44.18669029 134.05619176 -44.19293987 131.97441121 -44.20002937 129.89261627 C-44.2244687 122.60917622 -44.23756384 115.32580682 -44.24111938 108.04232788 C-44.24475071 101.28653384 -44.27463091 94.53119515 -44.31652397 87.77554011 C-44.35137847 81.94758733 -44.36667042 76.1197844 -44.36736542 70.29172826 C-44.36815308 66.82319786 -44.3766528 63.35513242 -44.40536308 59.88671112 C-44.43673637 56.01051233 -44.42741196 52.13495289 -44.41494751 48.25863647 C-44.4297818 47.13197067 -44.44461609 46.00530487 -44.4598999 44.84449768 C-44.34367512 32.0661854 -39.74163571 21.39220372 -30.81558228 12.26742554 C-22.03612944 4.37444173 -11.88240787 -0.05299412 0 0 Z " fill="#F52121" transform="translate(176.81558227539063,18.732574462890625)"/>
<path d="M0 0 C3.1875 0.4375 3.1875 0.4375 6.0625 2.0625 C10.52267031 9.14629991 8.6361975 18.02873995 7.00097656 25.88256836 C-1.12656154 61.24844931 -30.08088808 91.01074871 -60.0234375 110.02392578 C-82.54161488 123.79249682 -107.12512186 132.72600475 -132.8125 138.4375 C-111.03228508 140.09169354 -88.5801464 132.0924414 -68.1015625 125.65234375 C-67.20646973 125.37374512 -66.31137695 125.09514648 -65.38916016 124.80810547 C-63.7363999 124.28975826 -62.08720203 123.75982818 -60.44287109 123.21533203 C-55.05780787 121.51668793 -50.46033381 121.2077766 -44.8125 121.4375 C-46.72878204 129.97864279 -52.79152978 134.72139374 -59.8125 139.4375 C-64.98537923 142.42789548 -70.3920345 144.93512974 -75.8125 147.4375 C-76.93527344 147.97375 -78.05804688 148.51 -79.21484375 149.0625 C-96.82750178 157.10442709 -115.72021353 160.86123776 -134.8125 163.4375 C-135.57651123 163.54280029 -136.34052246 163.64810059 -137.12768555 163.7565918 C-145.46543533 164.75139172 -153.86595907 164.63659173 -162.25 164.625 C-163.05407288 164.62439575 -163.85814575 164.6237915 -164.68658447 164.62316895 C-176.51387005 164.59901419 -188.11180371 164.29532838 -199.8125 162.4375 C-200.6262207 162.31922852 -201.43994141 162.20095703 -202.27832031 162.07910156 C-245.46648277 155.71504163 -296.04592307 136.48239818 -323.8125 100.75 C-325.8125 97.4375 -325.8125 97.4375 -325.4375 95.23046875 C-325.23125 94.63878906 -325.025 94.04710937 -324.8125 93.4375 C-319.2263737 93.2289022 -315.06333947 93.70402055 -309.71875 95.5625 C-308.36066643 96.02299511 -307.00250889 96.4832721 -305.64428711 96.94335938 C-304.93867645 97.18723389 -304.2330658 97.4311084 -303.506073 97.68237305 C-280.83816209 105.48569234 -257.56716281 111.97914033 -233.8125 115.4375 C-232.64468994 115.61450439 -231.47687988 115.79150879 -230.27368164 115.97387695 C-218.23380707 117.6032697 -206.28789199 117.77635197 -194.14941406 117.75317383 C-190.7138663 117.75002417 -187.27919147 117.77352417 -183.84375 117.79882812 C-136.05226501 117.93636189 -85.05464125 104.43715036 -49.3984375 71.078125 C-46.68638261 68.30871547 -44.25082937 65.44800052 -41.8125 62.4375 C-42.65425781 62.87578125 -43.49601562 63.3140625 -44.36328125 63.765625 C-92.31601419 88.39896913 -146.15511259 106.93918274 -200.8125 104.4375 C-201.96347168 104.38964355 -203.11444336 104.34178711 -204.30029297 104.29248047 C-229.8509623 103.16481985 -254.28532096 99.9766106 -278.8125 92.4375 C-279.6576416 92.18129883 -280.5027832 91.92509766 -281.37353516 91.66113281 C-300.74032771 85.68192163 -318.5669586 76.90163303 -333.8125 63.4375 C-334.9571875 62.45910156 -334.9571875 62.45910156 -336.125 61.4609375 C-347.23697908 51.26048796 -355.04272184 36.3986683 -356.015625 21.28125 C-356.03109375 20.1778125 -356.0465625 19.074375 -356.0625 17.9375 C-356.08828125 16.8340625 -356.1140625 15.730625 -356.140625 14.59375 C-355.77947452 11.1198263 -354.81320316 9.25954446 -352.8125 6.4375 C-346.03724556 6.4375 -342.35548324 10.99603594 -337.8125 15.4375 C-336.94625 16.283125 -336.08 17.12875 -335.1875 18 C-333.94035074 19.27996898 -332.69860833 20.56721951 -331.51953125 21.91015625 C-303.97960965 51.85716612 -250.85163477 67.84941481 -211.3334198 69.54379272 C-208.64509102 69.6012781 -205.95844371 69.62790259 -203.26953125 69.640625 C-201.77883621 69.65121445 -201.77883621 69.65121445 -200.25802612 69.66201782 C-168.21388823 69.83756882 -138.07318359 68.15957158 -106.8125 60.4375 C-106.01134766 60.24462402 -105.21019531 60.05174805 -104.38476562 59.85302734 C-70.89228486 51.6167974 -27.14359731 34.04373724 -6.58984375 4.94140625 C-3.46487724 0.5389809 -3.46487724 0.5389809 0 0 Z " fill="#0168D3" transform="translate(450.8125,183.5625)"/>
<path d="M0 0 C4.50916458 1.32671687 8.55535261 3.69885396 12.66845703 5.93212891 C13.67932373 6.47047363 14.69019043 7.00881836 15.73168945 7.56347656 C18.8633769 9.23633969 21.98588675 10.92521057 25.10595703 12.61962891 C26.02957031 13.11994629 26.95318359 13.62026367 27.90478516 14.13574219 C32.38408433 16.56515117 36.85510638 19.00906426 41.32080078 21.46337891 C45.5246725 23.76799489 49.74902332 26.03057188 53.98486328 28.27587891 C55.14848389 28.89479004 56.31210449 29.51370117 57.51098633 30.15136719 C59.76347177 31.34789608 62.018697 32.53928674 64.27709961 33.72460938 C79.10658802 41.62057539 79.10658802 41.62057539 83.10595703 47.61962891 C83.60595703 50.49462891 83.60595703 50.49462891 83.10595703 53.61962891 C77.91281138 58.7949593 71.43477867 61.95321201 65.04345703 65.43212891 C57.37863162 69.62697235 49.85868776 73.96371897 42.43823242 78.57788086 C36.65454149 82.12165749 30.75358471 85.45773054 24.85595703 88.80712891 C23.64230607 89.49899451 22.42876416 90.19105144 21.21533203 90.88330078 C18.89566349 92.20585554 16.57340833 93.52347094 14.24951172 94.83862305 C12.28759612 95.9501619 10.32925961 97.06807093 8.37646484 98.19555664 C7.58594727 98.64745361 6.79542969 99.09935059 5.98095703 99.56494141 C5.31322266 99.95053223 4.64548828 100.33612305 3.95751953 100.73339844 C0.76158719 102.26309707 -1.46447946 102.34511349 -4.89404297 101.61962891 C-7.90140238 99.12648121 -9.65523672 96.33604765 -10.89404297 92.61962891 C-11.00050997 89.9643392 -11.0512884 87.33491134 -11.05517578 84.67919922 C-11.06262314 83.46645828 -11.06262314 83.46645828 -11.07022095 82.22921753 C-11.08483605 79.55205434 -11.09164416 76.87495045 -11.09716797 74.19775391 C-11.1029208 72.33551024 -11.10867852 70.47326659 -11.11444092 68.61102295 C-11.12494963 64.70373255 -11.13079287 60.79646271 -11.13427734 56.88916016 C-11.13975594 51.89126451 -11.16377093 46.89364213 -11.1922493 41.89583206 C-11.21090882 38.04729428 -11.21608309 34.19882181 -11.21761322 30.35024261 C-11.22063376 28.50831359 -11.22864205 26.66638555 -11.2417984 24.82450104 C-11.25892516 22.24200408 -11.25696239 19.66016802 -11.25048828 17.07763672 C-11.25970306 16.32205475 -11.26891785 15.56647278 -11.27841187 14.78799438 C-11.23859589 9.69709388 -10.31786393 6.12656953 -7.89404297 1.61962891 C-4.70903974 -0.50370658 -3.65576882 -0.66077328 0 0 Z " fill="#FCF9F7" transform="translate(233.89404296875,70.38037109375)"/>
<path d="M0 0 C7.46796912 4.03572069 12.45983647 10.07617175 14.9296875 18.27734375 C16.61251731 26.7924626 14.47414529 33.72246195 10.3203125 41.25390625 C8.26176468 44.04193946 6.08059952 46.16771037 3.3203125 48.25390625 C2.75957031 48.68574219 2.19882812 49.11757812 1.62109375 49.5625 C-4.77352059 53.57127125 -12.42329407 53.04074409 -19.6796875 52.25390625 C-22.76466667 51.36501395 -25.0936733 50.13464385 -27.6796875 48.25390625 C-28.7315625 47.53203125 -29.7834375 46.81015625 -30.8671875 46.06640625 C-36.54438955 40.3892042 -39.79486888 33.66704363 -39.9921875 25.62890625 C-39.88404272 16.65288935 -36.65331626 10.51093565 -30.6171875 3.98046875 C-21.82074322 -3.85829812 -10.50370234 -4.72501971 0 0 Z " fill="#F52020" transform="translate(447.6796875,24.74609375)"/>
<path d="M0 0 C3.33331289 1.1111043 3.79769936 1.76284088 5.875 4.4375 C16.82444257 17.28820561 33.53893506 26.62959535 48 35 C47.01 35.495 47.01 35.495 46 36 C43.82395876 34.97652298 41.81597284 33.90420595 39.75 32.6875 C39.12955811 32.32648193 38.50911621 31.96546387 37.86987305 31.59350586 C24.61863186 23.73565851 9.74530669 14.0070161 0 2 C0 1.34 0 0.68 0 0 Z " fill="#0D45C7" transform="translate(130,286)"/>
<path d="M0 0 C2.1996245 1.5467479 4.04070178 3.14382274 6 5 C5.34 5.66 4.68 6.32 4 7 C3.55269531 6.59007812 3.10539062 6.18015625 2.64453125 5.7578125 C2.03996094 5.21898437 1.43539063 4.68015625 0.8125 4.125 C0.22082031 3.59132813 -0.37085938 3.05765625 -0.98046875 2.5078125 C-5.30194316 -0.71866549 -9.11558418 -1.27507381 -14.4375 -1.25 C-15.52933594 -1.25515625 -16.62117188 -1.2603125 -17.74609375 -1.265625 C-21.11701578 -0.99044769 -23.84875625 -0.19775781 -27 1 C-26.67 0.01 -26.34 -0.98 -26 -2 C-17.36001166 -6.20922509 -8.14339239 -4.37952202 0 0 Z " fill="#F60D0B" transform="translate(450,26)"/>
<path d="M0 0 C6.77525444 0 10.45701676 4.55853594 15 9 C15.86625 9.845625 16.7325 10.69125 17.625 11.5625 C18.40875 12.366875 19.1925 13.17125 20 14 C21.26949632 15.27216894 22.54039774 16.54293686 23.8125 17.8125 C24.875 18.875 25.9375 19.9375 27 21 C22.7742937 21 21.01922973 18.58228496 18.125 15.8125 C17.34962891 15.08836914 17.34962891 15.08836914 16.55859375 14.34960938 C13.30642545 11.29814164 10.13981138 8.16716165 7 5 C4.4345406 2.4345406 2.52313332 2.45953913 -1 2 C-0.67 1.34 -0.34 0.68 0 0 Z " fill="#1C59CC" transform="translate(98,190)"/>
<path d="M0 0 C0 0.66 0 1.32 0 2 C-1.21558594 2.34933594 -2.43117188 2.69867188 -3.68359375 3.05859375 C-5.26827863 3.5180586 -6.85291137 3.9777033 -8.4375 4.4375 C-9.64116211 4.78264648 -9.64116211 4.78264648 -10.86914062 5.13476562 C-14.74053247 5.98705862 -14.74053247 5.98705862 -18 8 C-19.51928038 8.07179964 -21.04167482 8.08392007 -22.5625 8.0625 C-23.38878906 8.05347656 -24.21507812 8.04445313 -25.06640625 8.03515625 C-25.70449219 8.02355469 -26.34257812 8.01195312 -27 8 C-24.22498254 6.14998836 -22.36673921 5.38964056 -19.21875 4.4921875 C-18.29449219 4.22792969 -17.37023437 3.96367187 -16.41796875 3.69140625 C-15.45503906 3.42199219 -14.49210937 3.15257812 -13.5 2.875 C-12.53707031 2.59785156 -11.57414062 2.32070313 -10.58203125 2.03515625 C-3.39381927 0 -3.39381927 0 0 0 Z " fill="#0A4ACA" transform="translate(340,291)"/>
<path d="M0 0 C0 0.99 0 1.98 0 3 C-1.66666667 4.66666667 -3.33333333 6.33333333 -5 8 C-6.79320824 11.16645474 -6.79320824 11.16645474 -8 14 C-8.66 14 -9.32 14 -10 14 C-10.33 15.98 -10.66 17.96 -11 20 C-11.33 20 -11.66 20 -12 20 C-11.74974339 12.99281498 -9.7442384 9.13013339 -5 4 C-2.125 1.5 -2.125 1.5 0 0 Z " fill="#F71514" transform="translate(421,26)"/>
<path d="M0 0 C-0.69378511 3.26011642 -1.45893991 4.79038253 -4 7 C-3.67 5.35 -3.34 3.7 -3 2 C-3.74765625 2.15597656 -4.4953125 2.31195313 -5.265625 2.47265625 C-6.74289062 2.76462891 -6.74289062 2.76462891 -8.25 3.0625 C-9.71179688 3.35833984 -9.71179688 3.35833984 -11.203125 3.66015625 C-13.868119 3.98397535 -15.48871723 3.85503199 -18 3 C-11.75726932 0.5206176 -6.71700347 -0.31985731 0 0 Z " fill="#0B45C7" transform="translate(406,305)"/>
<path d="M0 0 C5.39392739 0.61665136 10.28395283 1.87922796 15.4375 3.5625 C16.16904297 3.79646484 16.90058594 4.03042969 17.65429688 4.27148438 C19.43780179 4.84267222 21.21913583 5.42063123 23 6 C23 6.33 23 6.66 23 7 C6.31072684 5.97023634 6.31072684 5.97023634 1.21484375 1.3984375 C0.81394531 0.93695313 0.41304687 0.47546875 0 0 Z " fill="#0945C8" transform="translate(158,286)"/>
<path d="M0 0 C0 3 0 3 -1.64453125 4.8671875 C-2.71767578 5.86105469 -2.71767578 5.86105469 -3.8125 6.875 C-6.7790539 9.72079153 -9.14128483 12.28256967 -11 16 C-11.33 15.01 -11.66 14.02 -12 13 C-8.96618573 7.88397159 -4.87747378 3.39945142 0 0 Z " fill="#F6110F" transform="translate(151,27)"/>
<path d="M0 0 C0.66 0.33 1.32 0.66 2 1 C-5.11389522 7.70387244 -5.11389522 7.70387244 -10 8 C-10 7.34 -10 6.68 -10 6 C-7.8828125 4.45703125 -7.8828125 4.45703125 -5.125 2.8125 C-4.22007812 2.26207031 -3.31515625 1.71164063 -2.3828125 1.14453125 C-1.20332031 0.57798828 -1.20332031 0.57798828 0 0 Z " fill="#084DCC" transform="translate(425,208)"/>
<path d="M0 0 C5.09210286 3.56320845 9.22660027 7.04741286 13 12 C9.57143381 10.49017269 7.04321784 8.48286031 4.25 6 C3.45078125 5.29875 2.6515625 4.5975 1.828125 3.875 C0 2 0 2 0 0 Z " fill="#0C4CCC" transform="translate(112,200)"/>
<path d="M0 0 C2 3 2 3 2.875 5.5625 C4.21723444 8.47067463 5.15461489 8.75514401 8 10 C8.99 11.485 8.99 11.485 10 13 C5.40535725 11.81852044 3.56176046 9.54473614 0.91796875 5.8515625 C0 4 0 4 0 0 Z " fill="#F60F0D" transform="translate(411,59)"/>
<path d="M0 0 C1.21065165 3.63195496 0.62784815 5.06531629 -0.4375 8.6875 C-0.86869141 10.17830078 -0.86869141 10.17830078 -1.30859375 11.69921875 C-1.53675781 12.45847656 -1.76492187 13.21773437 -2 14 C-3.1171875 12.328125 -3.1171875 12.328125 -4 10 C-3.3203125 7.421875 -3.3203125 7.421875 -2.125 4.75 C-1.73570312 3.85796875 -1.34640625 2.9659375 -0.9453125 2.046875 C-0.63335937 1.37140625 -0.32140625 0.6959375 0 0 Z " fill="#F71311" transform="translate(137,44)"/>
<path d="M0 0 C5.01317493 1.67105831 8.02017994 5.76551886 11 10 C6.23439379 8.59835111 3.04117557 5.84588526 0 2 C0 1.34 0 0.68 0 0 Z " fill="#F50D0D" transform="translate(143,201)"/>
<path d="M0 0 C0 3 0 3 -2.3125 5.5625 C-5 8 -5 8 -8 10 C-7.44449305 6.40094092 -6.25112752 5.00090201 -3.4375 2.75 C-2.79683594 2.22921875 -2.15617187 1.7084375 -1.49609375 1.171875 C-1.00238281 0.78515625 -0.50867188 0.3984375 0 0 Z " fill="#F80807" transform="translate(421,26)"/>
<path d="M0 0 C1.32 0 2.64 0 4 0 C4 0.66 4 1.32 4 2 C6.31 2 8.62 2 11 2 C11 2.33 11 2.66 11 3 C4.6 4.23076923 4.6 4.23076923 1.5625 3.0625 C1.046875 2.711875 0.53125 2.36125 0 2 C0 1.34 0 0.68 0 0 Z " fill="#F81918" transform="translate(163,214)"/>
<path d="M0 0 C-1.45449401 1.0055761 -2.91372443 2.00430435 -4.375 3 C-5.59316406 3.8353125 -5.59316406 3.8353125 -6.8359375 4.6875 C-9 6 -9 6 -11 6 C-9.89210592 2.67631776 -9.51563783 2.38436907 -6.625 0.75 C-6.01914062 0.39421875 -5.41328125 0.0384375 -4.7890625 -0.328125 C-3 -1 -3 -1 0 0 Z " fill="#F70B0A" transform="translate(288,144)"/>
</svg>
